<?xml version="1.0" encoding="iso-8859-1"?>
<!-- Generator: Adobe Illustrator 18.0.0, SVG Export Plug-In . SVG Version: 6.00 Build 0)  -->
<!DOCTYPE svg PUBLIC "-//W3C//DTD SVG 1.1//EN" "http://www.w3.org/Graphics/SVG/1.1/DTD/svg11.dtd">
<svg version="1.1" id="Capa_1" xmlns="http://www.w3.org/2000/svg" xmlns:xlink="http://www.w3.org/1999/xlink" x="0px" y="0px"
	 viewBox="0 0 207.498 207.498" style="enable-background:new 0 0 207.498 207.498;" xml:space="preserve">
<path d="M199.998,14.332h-34.743H7.5c-3.033,0-5.768,1.827-6.929,4.63c-1.161,2.803-0.519,6.028,1.626,8.173l26.585,26.587v118.915
	c0,11.32,9.21,20.529,20.53,20.529h102.912c11.32,0,20.53-9.209,20.53-20.529V29.332h19.743v74.418c0,4.143,3.358,7.5,7.5,7.5
	c4.142,0,7.5-3.357,7.5-7.5V21.832C207.498,17.69,204.14,14.332,199.998,14.332z M157.755,172.637c0,3.049-2.481,5.529-5.53,5.529
	H49.313c-3.049,0-5.53-2.48-5.53-5.529V50.615c0-1.989-0.79-3.897-2.197-5.303L25.606,29.332h132.149V172.637z"/>
<g>
</g>
<g>
</g>
<g>
</g>
<g>
</g>
<g>
</g>
<g>
</g>
<g>
</g>
<g>
</g>
<g>
</g>
<g>
</g>
<g>
</g>
<g>
</g>
<g>
</g>
<g>
</g>
<g>
</g>
</svg>
