<?xml version="1.0" encoding="UTF-8" standalone="no"?>
<!-- Created with Inkscape (http://www.inkscape.org/) -->

<svg
   version="1.1"
   id="svg2"
   width="14.666667"
   height="12"
   viewBox="0 0 14.666667 12"
   xmlns="http://www.w3.org/2000/svg"
   xmlns:svg="http://www.w3.org/2000/svg">
  <defs
     id="defs6" />
  <g
     id="g8"
     transform="matrix(1.3333333,0,0,-1.3333333,0,12)">
    <g
       id="g10"
       transform="scale(0.1)">
      <path
         d="m 57.2813,72.5938 c 0.9843,4.0937 2.7812,7.0781 10.75,7.375 0.5,0 1.7031,0.0937 1.7031,2 0,0.0937 0,1.0937 -1.2969,1.0937 -3.2969,0 -6.7812,-0.2969 -10.1719,-0.2969 -3.375,0 -7.0625,0.2969 -10.3593,0.2969 -0.5938,0 -1.7969,0 -1.7969,-2 0,-1.0937 1,-1.0937 1.7969,-1.0937 5.6875,-0.0938 6.7812,-2.1875 6.7812,-4.3907 0,-0.2968 -0.2031,-1.7812 -0.2969,-2.0781 L 45.4219,37.9219 C 42.0313,24.5625 30.5781,15.8906 20.6094,15.8906 c -6.7813,0 -12.15627,4.3907 -12.15627,12.9532 0,0.2031 0,3.3906 1.09375,7.7812 l 9.65622,38.7656 c 0.9063,3.5782 1.1094,4.5782 8.375,4.5782 2.5938,0 3.3907,0 3.3907,2 0,1.0937 -1.0938,1.0937 -1.3907,1.0937 -2.7968,0 -9.9687,-0.2969 -12.7656,-0.2969 -2.8906,0 -9.95312,0.2969 -12.84375,0.2969 -0.79687,0 -1.89062,0 -1.89062,-2 0,-1.0937 0.89062,-1.0937 2.78125,-1.0937 0.20312,0 2.09375,0 3.78125,-0.2032 1.79687,-0.1875 2.70317,-0.2968 2.70317,-1.5937 0,-0.5938 -1.0938,-4.7813 -1.70317,-7.0781 L 7.45313,62.3281 C 6.5625,58.4531 1.76563,39.6094 1.375,37.7188 0.671875,34.9219 0.671875,33.4375 0.671875,31.9375 c 0,-12.1562 9.078125,-19.125 19.531225,-19.125 12.5625,0 24.9219,11.25 28.2032,24.4063 l 8.875,35.375"
         style="fill:#000000;fill-opacity:1;fill-rule:nonzero;stroke:none"
         id="path12" />
      <path
         d="M 91.4219,26.6406 C 89.9688,28.9375 87.5938,30.75 84.25,30.75 c -8.9375,0 -18,-9.8281 -18,-19.875 0,-6.76562 4.5313,-11.578125 10.5313,-11.578125 3.7656,0 7.1093,2.171875 9.9062,4.890625 1.3281,-4.1875 5.375,-4.890625 7.1875,-4.890625 2.5,0 4.25,1.546875 5.5,3.703125 1.531,2.71875 2.438,6.6875 2.438,6.96875 0,0.90625 -0.907,0.90625 -1.11,0.90625 -0.9686,0 -1.0467,-0.2812 -1.5311,-2.15625 C 98.3281,5.375 97.0156,1.25 94.0781,1.25 c -1.8125,0 -2.2968,1.54688 -2.2968,3.42188 0,1.1875 0.5468,3.70312 1.0468,5.51562 0.4844,1.875 1.1875,4.7344 1.5313,6.2656 l 1.3906,5.3125 c 0.4219,1.8125 1.2656,5.0782 1.2656,5.4375 0,1.5313 -1.2656,2.2188 -2.375,2.2188 -1.1875,0 -2.7968,-0.8281 -3.2187,-2.7813 z M 86.9688,8.71875 C 86.4844,6.76563 84.9375,5.375 83.4063,4.04688 82.7813,3.48438 80,1.25 77,1.25 c -2.5937,0 -5.0937,1.8125 -5.0937,6.76563 0,3.70317 2.0156,11.37497 3.625,14.15627 3.2031,5.5781 6.7656,6.625 8.7187,6.625 4.875,0 6.2031,-5.2969 6.2031,-6.0625 0,-0.2813 -0.1406,-0.7656 -0.2031,-0.9688 L 86.9688,8.71875"
         style="fill:#000000;fill-opacity:1;fill-rule:nonzero;stroke:none"
         id="path14" />
    </g>
  </g>
</svg>
