<?xml version="1.0" encoding="UTF-8" standalone="no"?>
<!-- Created with Inkscape (http://www.inkscape.org/) -->

<svg
   version="1.1"
   id="svg2"
   width="24"
   height="12"
   viewBox="0 0 24 12"
   xmlns="http://www.w3.org/2000/svg"
   xmlns:svg="http://www.w3.org/2000/svg">
  <defs
     id="defs6" />
  <g
     id="g8"
     transform="matrix(1.3333333,0,0,-1.3333333,0,12)">
    <g
       id="g10"
       transform="scale(0.1)">
      <path
         d="m 56.6719,37.9219 c 1.6875,0 3.4844,0 3.4844,1.9844 0,2 -1.7969,2 -3.4844,2 H 2.76563 c -1.70313,0 -3.500005,0 -3.500005,-2 0,-1.9844 1.796875,-1.9844 3.500005,-1.9844 H 56.6719"
         style="fill:#000000;fill-opacity:1;fill-rule:nonzero;stroke:none"
         id="path12" />
      <path
         d="m 132.281,72.5938 c 0.985,4.0937 2.782,7.0781 10.75,7.375 0.5,0 1.703,0.0937 1.703,2 0,0.0937 0,1.0937 -1.296,1.0937 -3.297,0 -6.782,-0.2969 -10.172,-0.2969 -3.375,0 -7.063,0.2969 -10.36,0.2969 -0.593,0 -1.797,0 -1.797,-2 0,-1.0937 1,-1.0937 1.797,-1.0937 5.688,-0.0938 6.782,-2.1875 6.782,-4.3907 0,-0.2968 -0.204,-1.7812 -0.297,-2.0781 L 120.422,37.9219 C 117.031,24.5625 105.578,15.8906 95.6094,15.8906 c -6.7813,0 -12.1563,4.3907 -12.1563,12.9532 0,0.2031 0,3.3906 1.0938,7.7812 l 9.6562,38.7656 c 0.9063,3.5782 1.1094,4.5782 8.3749,4.5782 2.594,0 3.391,0 3.391,2 0,1.0937 -1.094,1.0937 -1.391,1.0937 -2.797,0 -9.9686,-0.2969 -12.7655,-0.2969 -2.8906,0 -9.9531,0.2969 -12.8437,0.2969 -0.7969,0 -1.8907,0 -1.8907,-2 0,-1.0937 0.8907,-1.0937 2.7813,-1.0937 0.2031,0 2.0937,0 3.7812,-0.2032 1.7969,-0.1875 2.7032,-0.2968 2.7032,-1.5937 0,-0.5938 -1.0938,-4.7813 -1.7032,-7.0781 l -2.1875,-8.7657 c -0.8906,-3.875 -5.6875,-22.7187 -6.0781,-24.6093 -0.7031,-2.7969 -0.7031,-4.2813 -0.7031,-5.7813 0,-12.1562 9.0781,-19.125 19.5312,-19.125 12.5629,0 24.9219,11.25 28.2029,24.4063 l 8.875,35.375"
         style="fill:#000000;fill-opacity:1;fill-rule:nonzero;stroke:none"
         id="path14" />
      <path
         d="m 166.797,42.125 c 0.625,2.375 0.766,3 6,3 1.75,0 2.578,0 2.578,1.4531 0,0.6407 -0.484,1.0469 -1.109,1.0469 -1.469,0 -3.203,-0.2031 -4.672,-0.2031 -1.531,0 -3.203,-0.0625 -4.75,-0.0625 l -4.813,0.0625 c -1.531,0 -3.265,0.2031 -4.812,0.2031 -0.406,0 -1.453,0 -1.453,-1.5312 0,-0.9688 0.765,-0.9688 2.297,-0.9688 0.062,0 1.468,0 2.656,-0.1406 1.39,-0.1406 1.875,-0.2188 1.875,-0.9844 0,-0.4219 -0.141,-0.9062 -0.281,-1.4531 L 151.047,5.51563 c -0.563,-2.3125 -0.766,-3 -6,-3 -1.891,0 -2.578,0 -2.578,-1.54688 0,-0.0625 0,-0.96875 1.109,-0.96875 2.094,0 7.328,0.28125 9.422,0.28125 l 4.813,-0.078125 C 159.344,0.203125 161.078,0 162.625,0 c 0.406,0 1.453,0 1.453,1.53125 0,0.98438 -0.828,0.98438 -2.234,0.98438 -0.141,0 -1.594,0 -3,0.14062 -1.594,0.14063 -1.594,0.40625 -1.594,1.04688 0,0.0625 0,0.48437 0.281,1.53125 l 9.266,36.89062"
         style="fill:#000000;fill-opacity:1;fill-rule:nonzero;stroke:none"
         id="path16" />
    </g>
  </g>
</svg>
